<svg width="236" height="227" viewBox="0 0 236 227" fill="none" xmlns="http://www.w3.org/2000/svg">
<g clip-path="url(#clip0)">
<path opacity="0.32" d="M160.779 200.048H58.2534C56.4215 200.048 54.8949 198.467 54.8949 196.57C54.8949 194.673 56.4215 193.092 58.2534 193.092H160.779C162.611 193.092 164.137 194.673 164.137 196.57C164.137 198.467 162.611 200.048 160.779 200.048Z" fill="#1C1C1C"/>
<path opacity="0.32" d="M232.406 226.546H17.5852C15.7533 226.546 14.2267 224.965 14.2267 223.067C14.2267 221.17 15.7533 219.589 17.5852 219.589H232.406C234.238 219.589 235.765 221.17 235.765 223.067C235.765 225.028 234.238 226.546 232.406 226.546Z" fill="#1C1C1C"/>
<path d="M216.957 131.432H2.01401V12.2876C2.01401 6.78571 6.28843 2.35889 11.6009 2.35889H207.065C212.499 2.35889 216.957 6.97544 216.957 12.6038V131.432Z" fill="#383939"/>
<path d="M5.67781 121.946V11.9082C5.67781 8.74616 8.12035 6.21655 11.1735 6.21655H207.798C210.851 6.21655 213.293 8.74616 213.293 11.9082V121.946C213.293 125.108 210.851 127.638 207.798 127.638H11.1735C8.18141 127.638 5.67781 125.045 5.67781 121.946Z" fill="#3A3A3A"/>
<path d="M216.957 131.432H2.01401V12.2876C2.01401 6.78571 6.28843 2.35889 11.6009 2.35889H207.065C212.499 2.35889 216.957 6.97544 216.957 12.6038V131.432Z" stroke="#383939" stroke-width="6" stroke-miterlimit="10" stroke-linecap="round" stroke-linejoin="round"/>
<path d="M204.735 118.734L204.735 15.0198L14.2175 15.0198L14.2175 118.734L204.735 118.734Z" fill="#4F4F4F"/>
<path d="M207.004 161.788H11.662C6.3495 161.788 2.01401 157.298 2.01401 151.796V131.432H216.957V151.479C216.957 157.108 212.499 161.788 207.004 161.788Z" fill="#D4E8DC"/>
<path d="M11.662 156.728C9.03627 156.728 6.89906 154.515 6.89906 151.796V133.519H212.072V151.479C212.072 154.388 209.813 156.728 207.004 156.728H11.662Z" fill="#EBF2EE"/>
<path d="M207.004 161.788H11.662C6.3495 161.788 2.01401 157.298 2.01401 151.796V131.432H216.957V151.479C216.957 157.108 212.5 161.788 207.004 161.788Z" stroke="#383939" stroke-width="6" stroke-miterlimit="10" stroke-linecap="round" stroke-linejoin="round"/>
<path d="M141.849 184.554H77.122L86.7089 161.788H132.262L141.849 184.554Z" fill="#CAD8D0"/>
<path d="M136.537 171.906L132.262 161.788H86.7089L82.4345 171.906H136.537Z" fill="#A1ADA6"/>
<path d="M141.849 184.554H77.122L86.7089 161.788H132.262L141.849 184.554Z" stroke="#383939" stroke-width="6" stroke-miterlimit="10" stroke-linecap="round" stroke-linejoin="round"/>
<path d="M154.062 194.673H64.9093L65.8253 191.321C66.9244 187.337 70.5271 184.554 74.6794 184.554H144.292C148.444 184.554 152.108 187.337 153.146 191.321L154.062 194.673Z" fill="#DAEDE2"/>
<path d="M154.062 194.673H64.9093L65.8253 191.321C66.9244 187.337 70.5271 184.554 74.6794 184.554H144.292C148.444 184.554 152.108 187.337 153.146 191.321L154.062 194.673Z" stroke="#383939" stroke-width="6" stroke-miterlimit="10" stroke-linecap="round" stroke-linejoin="round"/>
<path d="M30.0421 220.538H184.96C187.219 220.538 189.051 218.641 189.051 216.301C189.051 213.961 187.219 212.064 184.96 212.064H30.0421C27.7827 212.064 25.9508 213.961 25.9508 216.301C25.8898 218.641 27.7217 220.538 30.0421 220.538Z" fill="#DAEDE2"/>
<path d="M30.0421 220.538H184.96C187.219 220.538 189.051 218.641 189.051 216.301C189.051 213.961 187.219 212.064 184.96 212.064H30.0421C27.7827 212.064 25.9508 213.961 25.9508 216.301C25.8898 218.641 27.7217 220.538 30.0421 220.538Z" stroke="#383939" stroke-width="6" stroke-miterlimit="10" stroke-linecap="round" stroke-linejoin="round"/>
<path d="M77.5494 212H152.047V209.471C152.047 207.384 150.398 205.676 148.383 205.676H81.2132C79.1981 205.676 77.5494 207.384 77.5494 209.471V212Z" fill="#383939"/>
<path d="M62.7721 212H75.7175V209.471C75.7175 207.384 74.0688 205.676 72.0537 205.676H66.4359C64.4208 205.676 62.7721 207.384 62.7721 209.471V212Z" fill="#383939"/>
<path d="M47.6894 212H60.6349V209.471C60.6349 207.384 58.9861 205.676 56.9711 205.676H51.3532C49.3381 205.676 47.6894 207.384 47.6894 209.471V212Z" fill="#383939"/>
<path d="M169.328 212H182.273V209.471C182.273 207.384 180.624 205.676 178.609 205.676H172.991C170.976 205.676 169.328 207.384 169.328 209.471V212Z" fill="#383939"/>
<path d="M154.306 212H167.252V209.471C167.252 207.384 165.603 205.676 163.588 205.676H157.97C155.955 205.676 154.306 207.384 154.306 209.471V212Z" fill="#383939"/>
<path d="M32.6678 212H45.6133V209.471C45.6133 207.384 43.9646 205.676 41.9495 205.676H36.3316C34.3165 205.676 32.6678 207.384 32.6678 209.471V212Z" fill="#383939"/>
<path d="M225.811 220.538C225.75 215.732 220.682 210.925 211.706 210.925C202.79 210.925 197.661 215.732 197.6 220.538H225.811Z" fill="#DAEDE2"/>
<path d="M225.811 220.538C225.75 215.732 220.682 210.925 211.706 210.925C202.79 210.925 197.661 215.732 197.6 220.538H225.811Z" stroke="#383939" stroke-width="6" stroke-miterlimit="10" stroke-linecap="round" stroke-linejoin="round"/>
<path d="M118.157 145.029C115.348 145.029 113.027 142.879 112.661 140.033C112.6 140.033 112.6 140.033 112.539 140.033C109.058 140.033 106.249 142.942 106.249 146.547C106.249 150.151 109.058 153.06 112.539 153.06C116.019 153.06 118.828 150.151 118.828 146.547C118.828 145.978 118.767 145.472 118.645 144.966C118.462 145.029 118.34 145.029 118.157 145.029Z" fill="#383939"/>
<path d="M116.141 65.9154C114.371 65.9154 112.844 64.5241 112.661 62.7534H112.6C110.401 62.7534 108.57 64.6506 108.57 66.9272C108.57 69.2039 110.401 71.1011 112.6 71.1011C114.798 71.1011 116.63 69.2039 116.63 66.9272C116.63 66.5478 116.569 66.2316 116.508 65.9154C116.325 65.9154 116.264 65.9154 116.141 65.9154Z" fill="#E7F7F7"/>
<path opacity="0.16" d="M35.8431 118.784H59.1693L110.218 15.0702H86.8921L35.8431 118.784Z" fill="#C2D3C9"/>
<path opacity="0.16" d="M78.0379 118.784L129.087 15.0702H120.355L69.3058 118.784H78.0379Z" fill="#C2D3C9"/>
<g opacity="0.38">
<path opacity="0.38" d="M123.713 82.6741H99.1658C98.6773 82.6741 98.2499 82.2314 98.2499 81.7255C98.2499 81.2195 98.6773 80.7769 99.1658 80.7769H123.713C124.202 80.7769 124.629 81.2195 124.629 81.7255C124.629 82.2314 124.202 82.6741 123.713 82.6741Z" fill="#C2D3C9"/>
</g>
<path d="M107.654 80.7769H99.1658C98.6773 80.7769 98.2499 81.2195 98.2499 81.7255C98.2499 82.2314 98.6773 82.6741 99.1658 82.6741H107.654V80.7769Z" fill="#C2D3C9"/>
</g>
<defs>
<clipPath id="clip0">
<rect width="236" height="227" fill="white"/>
</clipPath>
</defs>
</svg>
