<svg width="304" height="204" viewBox="0 0 304 204" fill="none" xmlns="http://www.w3.org/2000/svg">
<path d="M284.116 178.71H11.2967C5.14318 178.71 0.183655 173.872 0.183655 167.871C0.183655 161.869 5.14318 157.031 11.2967 157.031H284.116C290.27 157.031 295.229 161.869 295.229 167.871C295.229 173.828 290.27 178.71 284.116 178.71Z" fill="#2B2727"/>
<path d="M247.654 60.8687V37.6231C247.654 28.71 240.261 21.4989 231.123 21.4989C221.984 21.4989 214.591 28.71 214.591 37.6231V60.8239C214.591 75.6492 202.238 87.6976 187.038 87.6976V155.777C187.038 161.734 191.952 166.527 198.059 166.527H264.186C270.294 166.527 275.207 161.734 275.207 155.777V87.6976C259.961 87.7423 247.654 75.694 247.654 60.8687Z" fill="#72361F"/>
<path d="M232.225 21.4989H224.694V25.2164H232.225V21.4989Z" fill="#72361F"/>
<path d="M241.225 60.8687V37.6231C241.225 28.71 233.832 21.4989 224.694 21.4989C215.555 21.4989 208.162 28.71 208.162 37.6231V60.8239C208.162 75.6492 195.809 87.6976 180.609 87.6976V155.777C180.609 161.734 185.523 166.527 191.63 166.527H257.757C263.865 166.527 268.778 161.734 268.778 155.777V87.6976C253.532 87.7423 241.225 75.694 241.225 60.8687Z" fill="#5B3318"/>
<path d="M268.778 87.7424C258.4 87.7424 249.399 82.1437 244.669 73.9025L219.183 83.9353L206.279 90.9224L236.863 95.5805L268.778 89.3996V87.7424Z" fill="#5B3318"/>
<path d="M224.694 43.3113C227.737 43.3113 230.204 40.905 230.204 37.9366C230.204 34.9682 227.737 32.5619 224.694 32.5619C221.65 32.5619 219.183 34.9682 219.183 37.9366C219.183 40.905 221.65 43.3113 224.694 43.3113Z" fill="#783F21"/>
<path d="M72.6937 21.4989H66.2646V23.1561H72.6937V21.4989Z" fill="#72361F"/>
<path d="M224.74 32.5619H66.2646V43.3113H224.74V32.5619Z" fill="#783F21"/>
<g opacity="0.4">
<g opacity="0.4">
<path opacity="0.4" d="M75.5408 17.7814C76.0918 21.4989 79.2604 41.6093 94.5063 48.5517C96.3432 49.4026 103.737 52.7619 107.686 49.761C112.875 45.7747 106.262 34.8909 111.956 28.2621C115.63 23.9623 122.84 23.3352 127.57 24.0967C143.918 26.7392 144.239 48.4173 160.036 51.8661C170.047 54.0607 180.609 47.7007 186.074 44.3862C197.462 37.5335 199.483 30.188 206.279 30.0537C210.458 29.9641 216.611 32.5619 224.326 45.8643" stroke="#300F0F" stroke-width="6" stroke-miterlimit="10" stroke-linecap="round" stroke-linejoin="round"/>
<path opacity="0.4" d="M88.0773 26.4257C86.3323 29.0235 86.0567 32.2483 87.4803 34.8013C88.8579 37.2647 91.2918 38.1605 92.0724 38.3845C92.899 38.6532 95.8839 39.4146 98.5014 37.8022C101.073 36.1898 102.359 32.8306 101.578 29.4266" stroke="#300F0F" stroke-width="6" stroke-miterlimit="10" stroke-linecap="round" stroke-linejoin="round"/>
<path opacity="0.4" d="M117.146 44.3414C116.916 43.7144 114.895 38.0261 118.385 33.0097C118.569 32.6962 121.554 28.486 125.411 28.2173C130.876 27.8142 137.627 35.3388 139.785 47.6111" stroke="#300F0F" stroke-width="6" stroke-miterlimit="10" stroke-linecap="round" stroke-linejoin="round"/>
<path opacity="0.4" d="M124.493 36.2793C122.932 37.0408 122.656 40.1312 123.575 42.2363C123.758 42.6394 124.906 45.1924 126.927 45.2372C128.901 45.282 130.692 42.8634 130.601 40.7583C130.509 37.7126 126.422 35.3836 124.493 36.2793Z" stroke="#300F0F" stroke-width="6" stroke-miterlimit="10" stroke-linecap="round" stroke-linejoin="round"/>
<path opacity="0.4" d="M150.852 26.157C150.99 27.635 151.403 30.4567 153.286 33.3233C155.995 37.4439 159.853 39.0563 161.23 39.5938C162.562 40.1312 166.787 41.7437 171.654 40.4896C174.869 39.6834 176.155 38.1157 184.191 30.9494C186.992 28.4412 189.288 26.4705 190.62 25.2612" stroke="#300F0F" stroke-width="6" stroke-miterlimit="10" stroke-linecap="round" stroke-linejoin="round"/>
<path opacity="0.4" d="M198.61 46.133C199.024 42.4603 201.503 39.5042 204.718 38.6532C205.039 38.5636 209.264 37.5335 212.065 40.4448C214.086 42.5499 213.948 45.282 213.902 45.8195" stroke="#300F0F" stroke-width="6" stroke-miterlimit="10" stroke-linecap="round" stroke-linejoin="round"/>
<path opacity="0.4" d="M165.547 27.3215C165.547 31.3974 167.567 34.3982 169.818 34.8013C171.746 35.1149 173.583 33.4577 174.41 32.6962C176.706 30.6359 177.303 28.0382 177.486 27.008" stroke="#300F0F" stroke-width="6" stroke-miterlimit="10" stroke-linecap="round" stroke-linejoin="round"/>
</g>
</g>
<path opacity="0.44" d="M134.137 32.5619H126.835V43.2218H134.137V32.5619Z" fill="#72361F"/>
<path opacity="0.44" d="M98.5015 32.5619H86.9752V43.2218H98.5015V32.5619Z" fill="#72361F"/>
<path opacity="0.44" d="M187.038 32.5619H176.935V43.2218H187.038V32.5619Z" fill="#72361F"/>
<path d="M122.381 28.7548H122.335L118.34 18.274L121.6 3.67273H130.279L133.586 18.274L129.544 28.7548V60.2417H122.381V28.7548Z" fill="#C9C9C9"/>
<path d="M127.248 28.7548L131.289 18.274L127.983 3.67273H130.279L133.585 18.274L129.544 28.7548V60.2417H127.248V28.7548Z" fill="#B5B5B5"/>
<path d="M114.895 125.141V74.0368C114.895 71.5734 116.411 69.4235 118.615 68.5277C119.534 68.1694 119.671 66.9601 118.891 66.3331L115.814 63.8249C114.987 63.153 114.528 62.1676 114.528 61.1375V58.7637C114.528 57.8679 115.263 57.1512 116.181 57.1512H135.652C136.57 57.1512 137.305 57.8679 137.305 58.7637V61.1375C137.305 62.1676 136.846 63.153 136.019 63.8249L132.943 66.3331C132.208 66.9601 132.346 68.1246 133.218 68.5277C135.422 69.4683 136.938 71.5734 136.938 74.0368V125.141C136.938 128.456 134.182 131.143 130.784 131.143H120.957C117.651 131.188 114.895 128.456 114.895 125.141Z" fill="#F45145"/>
<path d="M133.356 125.141V74.0368C133.356 71.5734 131.84 69.4235 129.636 68.5277C128.718 68.1694 128.58 66.9601 129.361 66.3331L132.437 63.8249C133.264 63.153 133.723 62.1676 133.723 61.1375V58.7637C133.723 57.8679 132.988 57.1512 132.07 57.1512H135.744C136.662 57.1512 137.397 57.8679 137.397 58.7637V61.1375C137.397 62.1676 136.938 63.153 136.111 63.8249L133.034 66.3331C132.3 66.9601 132.437 68.1246 133.31 68.5277C135.514 69.4683 137.03 71.5734 137.03 74.0368V125.141C137.03 128.456 134.274 131.143 130.876 131.143H127.202C130.601 131.188 133.356 128.456 133.356 125.141Z" fill="#DB493E"/>
<path d="M123.988 122.409V79.7251C123.988 78.471 122.978 77.4856 121.692 77.4856C120.406 77.4856 119.396 78.471 119.396 79.7251V122.409C119.396 123.663 120.406 124.649 121.692 124.649C122.978 124.649 123.988 123.619 123.988 122.409Z" fill="#AA3930"/>
<path d="M132.483 122.409V79.7251C132.483 78.471 131.473 77.4856 130.187 77.4856C128.902 77.4856 127.891 78.471 127.891 79.7251V122.409C127.891 123.663 128.902 124.649 130.187 124.649C131.473 124.649 132.483 123.619 132.483 122.409Z" fill="#AA3930"/>
<path d="M191.217 3.44881C190.482 4.25502 189.38 5.41953 188.462 6.4049C187.497 7.43505 185.89 7.61422 184.696 6.76322C182.079 4.92686 177.762 1.74681 172.297 1.34371C164.399 0.716654 159.072 3.4488 154.25 7.12153C147.132 12.5858 142.632 19.1251 140.244 23.1561C142.035 24.679 142.816 25.1269 144.193 26.2466C146.444 23.9623 150.852 19.1699 157.097 17.647C158.062 17.4231 159.761 17.02 161.781 17.647C162.47 17.871 163.756 18.3637 164.904 19.6178C166.879 21.7676 166.741 24.4102 166.741 24.9925V42.3708H178.451V25.7539C178.221 22.8426 179.507 20.1552 181.757 19.0355C181.941 18.9459 184.145 17.871 186.303 18.6772C187.865 19.2595 189.793 21.0062 191.263 22.3947C191.401 22.5291 191.768 22.8426 192.365 23.0665C192.686 23.1561 193.054 23.2457 193.375 23.2009C195.488 23.1561 199.804 23.0665 202.789 22.9322C204.213 22.8874 205.315 21.7677 205.315 20.3792V5.24039C205.315 3.85191 204.167 2.73218 202.743 2.68739C199.896 2.6426 195.855 2.55302 193.421 2.50823C192.595 2.50823 191.768 2.86655 191.217 3.44881Z" fill="#C9C9C9"/>
<path d="M160.817 16.8408C159.531 15.4075 157.97 14.8253 157.235 14.5565C154.939 13.8399 152.918 14.2878 151.816 14.5565C148.372 15.3627 145.433 17.0647 142.999 18.9011C141.897 20.4687 140.979 21.902 140.244 23.1113C142.035 24.6341 142.816 25.082 144.193 26.2018C146.444 23.9175 150.852 19.125 157.097 17.6022C157.97 17.3783 159.531 17.02 161.368 17.4678C161.23 17.3335 161.047 17.1095 160.817 16.8408Z" fill="#ABABAB"/>
<path d="M204.672 20.6927C201.228 20.7823 196.222 20.9166 193.789 20.9614C193.375 20.9614 192.962 20.9166 192.595 20.7823C191.906 20.5583 191.447 20.1552 191.309 20.0209C189.61 18.4532 187.36 16.4377 185.569 15.7659C183.089 14.8253 180.517 16.1242 180.334 16.2138C177.762 17.5574 176.293 20.6031 176.522 24.0071V42.4603H178.497V25.8435C178.267 22.9322 179.553 20.2448 181.803 19.1251C181.987 19.0355 184.191 17.9605 186.349 18.7667C187.911 19.349 189.839 21.0958 191.309 22.4843C191.447 22.6186 191.814 22.9322 192.411 23.1561C192.732 23.2457 193.1 23.3353 193.421 23.2905C195.534 23.2457 199.85 23.1561 202.835 23.0217C204.167 22.9769 205.269 21.9468 205.361 20.6927C205.131 20.6479 204.902 20.6927 204.672 20.6927Z" fill="#ABABAB"/>
<path d="M174.042 121.693H171.838C166.052 121.693 161.46 116.139 161.644 109.465L163.802 42.4155H182.079L184.237 109.465C184.421 116.139 179.828 121.693 174.042 121.693Z" fill="#3B69A9"/>
<path d="M184.237 109.465L182.079 42.4155H177.624L179.782 109.465C179.966 115.691 175.971 120.931 170.736 121.603C171.103 121.648 171.471 121.693 171.838 121.693H174.042C179.828 121.693 184.421 116.139 184.237 109.465Z" fill="#355E98"/>
<path d="M184.467 47.835H161.414C159.899 47.835 158.659 46.6257 158.659 45.1477C158.659 43.6696 159.899 42.4603 161.414 42.4603H184.467C185.982 42.4603 187.222 43.6696 187.222 45.1477C187.222 46.6257 185.982 47.835 184.467 47.835Z" fill="#355E98"/>
<path opacity="0.23" d="M162.929 71.8869L182.538 58.7189L182.951 70.8568L162.608 81.9646L162.929 71.8869Z" fill="#72361F"/>
<path d="M236.587 20.424L114.574 112.6L138.407 142.565L273.554 66.5122L236.587 20.424Z" fill="#C9C9C9"/>
<path d="M268.227 58.9875L132.529 135.129L138.591 142.699L271.855 67.4527L268.227 58.9875Z" fill="#E1E1E1"/>
<path d="M301.428 36.145L276.309 4.5237C272.452 -0.358342 265.242 -1.25413 260.237 2.55297L257.573 4.56849L266.941 16.3481C267.584 16.1241 268.227 16.0346 268.916 16.0346H268.962C269.1 16.0346 269.283 16.0346 269.421 16.0346C269.467 16.0346 269.467 16.0346 269.513 16.0346C269.926 16.0793 270.385 16.1241 270.799 16.2585C270.845 16.2585 270.936 16.3033 270.982 16.3033C271.074 16.3481 271.166 16.3481 271.304 16.3929C271.396 16.4377 271.488 16.4377 271.579 16.4824C271.671 16.5272 271.763 16.572 271.855 16.572C271.947 16.6168 272.085 16.6616 272.176 16.7064C272.222 16.7512 272.314 16.7512 272.36 16.796C272.544 16.8856 272.681 16.9751 272.819 17.1095C272.865 17.1543 272.911 17.1991 273.003 17.2439C273.095 17.3335 273.233 17.423 273.324 17.4678C273.37 17.5126 273.416 17.5574 273.508 17.6022C273.6 17.6918 273.692 17.7813 273.83 17.8709C273.875 17.9157 273.921 17.9605 273.967 18.0053C274.105 18.1397 274.243 18.3188 274.381 18.4532L286.32 33.5024C286.458 33.6816 286.55 33.8159 286.688 33.9951C286.733 34.0399 286.733 34.0847 286.779 34.1742C286.871 34.3086 286.917 34.3982 286.963 34.5326C287.009 34.5774 287.009 34.6669 287.055 34.7117C287.101 34.8461 287.147 34.9357 287.239 35.07C287.285 35.1148 287.285 35.2044 287.33 35.2492C287.376 35.4284 287.468 35.6075 287.514 35.7867C287.514 35.8762 287.56 35.921 287.56 36.0106C287.606 36.145 287.606 36.2346 287.652 36.3689C287.652 36.4585 287.698 36.5481 287.698 36.6377C287.698 36.7272 287.698 36.8168 287.744 36.9064C287.744 36.996 287.744 37.1303 287.79 37.2199C287.79 37.3095 287.79 37.3543 287.79 37.4439C287.79 37.8918 287.744 38.2949 287.698 38.698C287.698 38.7428 287.698 38.7428 287.698 38.7876C287.652 38.9219 287.652 39.0563 287.606 39.2355V39.2802C287.422 39.9073 287.147 40.4896 286.779 41.0718L296.698 53.568L298.26 52.6723C304.138 49.3131 305.699 41.5197 301.428 36.145Z" fill="#FDC457"/>
<path d="M283.657 30.2328L271.717 15.1835C271.579 15.0044 271.442 14.87 271.304 14.7357C271.258 14.6909 271.212 14.6461 271.166 14.6013C271.074 14.5117 270.982 14.4221 270.845 14.3325C270.799 14.2878 270.753 14.243 270.661 14.1982C270.569 14.1086 270.431 14.019 270.34 13.9742C270.294 13.9295 270.248 13.8847 270.156 13.8399C270.018 13.7503 269.834 13.6159 269.697 13.5263C269.651 13.4816 269.559 13.4816 269.513 13.4368C269.421 13.392 269.283 13.3472 269.191 13.3024C269.1 13.2576 269.008 13.2128 268.916 13.2128C268.824 13.168 268.732 13.168 268.64 13.1232C268.549 13.0784 268.457 13.0337 268.319 13.0337C268.273 13.0337 268.181 12.9889 268.135 12.9889C267.722 12.8545 267.263 12.8097 266.849 12.7649C266.804 12.7649 266.804 12.7649 266.758 12.7649C266.62 12.7649 266.436 12.7649 266.298 12.7649H266.252C265.61 12.7649 264.921 12.8993 264.278 13.0785L257.619 4.52368L266.987 16.3033C267.63 16.0793 268.273 15.9898 268.962 15.9898H269.008C269.146 15.9898 269.329 15.9898 269.467 15.9898C269.513 15.9898 269.513 15.9898 269.559 15.9898C269.972 16.0346 270.431 16.0793 270.845 16.2137C270.891 16.2137 270.982 16.2585 271.028 16.2585C271.12 16.3033 271.212 16.3033 271.35 16.3481C271.442 16.3929 271.533 16.3929 271.625 16.4377C271.717 16.4824 271.809 16.5272 271.901 16.5272C271.993 16.572 272.13 16.6168 272.222 16.6616C272.268 16.7064 272.36 16.7064 272.406 16.7512C272.59 16.8408 272.727 16.9303 272.865 17.0647C272.911 17.1095 272.957 17.1543 273.049 17.1991C273.141 17.2886 273.278 17.3782 273.37 17.423C273.416 17.4678 273.462 17.5126 273.554 17.5574C273.646 17.647 273.738 17.7365 273.875 17.8261C273.921 17.8709 273.967 17.9157 274.013 17.9605C274.151 18.0949 274.289 18.274 274.427 18.4084L283.932 30.3671C283.794 30.4119 283.703 30.3224 283.657 30.2328Z" fill="#F2B24C"/>
<path d="M301.428 36.145L299.178 33.3232C302.944 38.6532 301.291 46.0434 295.459 49.3578L293.897 50.2536L286.642 41.0718L296.561 53.568L298.122 52.6723C304.138 49.3131 305.699 41.5197 301.428 36.145Z" fill="#F2B24C"/>
<path d="M272.819 17.1543C272.682 17.0647 272.498 16.9303 272.36 16.8408C272.498 16.9303 272.682 17.0647 272.819 17.1543Z" fill="#323B40"/>
<path d="M273.462 17.647C273.554 17.7366 273.646 17.8261 273.738 17.9157C273.692 17.8261 273.6 17.7366 273.462 17.647Z" fill="#323B40"/>
<path d="M272.176 16.7512C272.085 16.7064 271.947 16.6616 271.855 16.6168C271.947 16.6616 272.039 16.7064 272.176 16.7512Z" fill="#323B40"/>
<path d="M287.606 36.6824C287.606 36.772 287.606 36.8616 287.652 36.9512C287.652 36.8616 287.606 36.772 287.606 36.6824Z" fill="#323B40"/>
<path d="M271.579 16.4824C271.534 16.4824 271.488 16.4376 271.442 16.4376C271.488 16.4824 271.534 16.4824 271.579 16.4824Z" fill="#323B40"/>
<path d="M287.56 36.2794C287.56 36.3241 287.56 36.3689 287.606 36.4137C287.56 36.3689 287.56 36.3241 287.56 36.2794Z" fill="#323B40"/>
<path d="M287.285 35.3387C287.33 35.4283 287.376 35.5627 287.376 35.6971C287.33 35.5627 287.33 35.4283 287.285 35.3387Z" fill="#323B40"/>
<path d="M287.055 34.8013C287.101 34.8461 287.101 34.9356 287.147 34.9804C287.101 34.8908 287.055 34.8461 287.055 34.8013Z" fill="#323B40"/>
<path d="M286.596 41.0718C286.182 41.6988 285.677 42.2363 285.08 42.6842L281.177 45.6403C275.299 50.0745 266.895 49.0443 262.349 43.3113L258.675 38.6532C254.129 32.9201 255.185 24.7237 261.063 20.2895L264.967 17.3334C265.564 16.8855 266.253 16.5272 266.987 16.3033L257.619 4.52368L233.143 23.0217L269.513 68.7964L298.122 52.6722L296.561 53.568L286.596 41.0718Z" fill="#323B40"/>
<path d="M286.734 34.219C286.779 34.2638 286.825 34.3534 286.825 34.3982C286.825 34.3534 286.779 34.3086 286.734 34.219Z" fill="#323B40"/>
<path d="M286.274 33.5472C286.412 33.7263 286.504 33.8607 286.642 34.0399C286.504 33.9055 286.412 33.7263 286.274 33.5472Z" fill="#323B40"/>
<path d="M296.515 53.568L269.467 68.7964L266.987 65.706L293.943 50.3432L296.515 53.568Z" fill="#2D363A"/>
<path d="M262.349 166.572H101.532V87.7423H268.732V160.301C268.778 163.75 265.885 166.572 262.349 166.572Z" fill="#7D4025"/>
<g opacity="0.08">
<path opacity="0.08" d="M113.472 143.819C117.605 137.011 132.208 144.535 125.549 152.015C120.36 157.882 109.523 150.358 113.472 143.819ZM113.472 143.819C115.584 140.325 111.865 146.461 113.472 143.819Z" stroke="#300F0F" stroke-width="6" stroke-miterlimit="10" stroke-linecap="round" stroke-linejoin="round"/>
<path opacity="0.08" d="M130.417 82.0989C130.463 92.9827 134.182 109.376 141.117 114.929C154.893 125.903 198.381 107.763 198.978 90.161C199.712 68.6173 136.295 47.0288 127.662 57.3304C124.998 60.5104 125.228 69.6923 126.881 70.1849C127.432 70.3641 127.937 69.1996 128.58 69.3339C130.509 69.6027 130.417 79.8146 130.417 82.0989Z" stroke="#300F0F" stroke-width="5.8435" stroke-miterlimit="10" stroke-linecap="round" stroke-linejoin="round"/>
<path opacity="0.08" d="M101.67 91.4599C90.6948 121.245 134.412 115.422 142.586 135.085C151.219 155.822 123.115 172.036 106.63 176.784" stroke="#300F0F" stroke-width="6" stroke-miterlimit="10" stroke-linecap="round" stroke-linejoin="round"/>
<path opacity="0.08" d="M103.231 135.129C121.784 122.768 140.841 133.607 129.544 153.986C122.932 165.9 109.569 171.991 96.0676 172.753" stroke="#300F0F" stroke-width="6" stroke-miterlimit="10" stroke-linecap="round" stroke-linejoin="round"/>
<path opacity="0.08" d="M257.757 114.93C259.548 116.004 262.625 117.438 266.482 117.438C268.227 117.438 270.431 117.393 272.314 115.915C272.819 115.512 274.335 114.302 274.381 112.735C274.473 109.913 270.018 107.181 265.977 106.912C262.717 106.733 258.124 108.077 257.252 111.302C256.885 112.735 257.344 114.079 257.757 114.93Z" stroke="#300F0F" stroke-width="6" stroke-miterlimit="10" stroke-linecap="round" stroke-linejoin="round"/>
<path opacity="0.08" d="M251.741 125.365C255.92 127.605 260.053 126.978 268.273 125.679C273.83 124.828 276.86 124.29 279.937 121.872C280.81 121.2 285.402 117.572 285.769 112.063C286.274 104.941 279.386 99.1188 273.784 96.8794C264.048 93.0275 255.002 98.7157 253.395 99.7011C250.593 101.493 243.705 105.792 243.659 112.959C243.613 118.647 247.792 123.26 251.741 125.365Z" stroke="#300F0F" stroke-width="6" stroke-miterlimit="10" stroke-linecap="round" stroke-linejoin="round"/>
<path opacity="0.08" d="M284.3 134.234C281.866 136.07 273.875 141.803 262.854 140.504C254.037 139.474 248.481 134.502 246.92 133.024C240.031 126.44 238.929 118.513 238.654 116.004C238.378 113.496 237.735 107.494 241.042 101C243.843 95.5357 247.93 92.6244 250.456 90.8776C260.834 83.6217 272.039 84.6519 274.105 84.8758C277.962 85.2789 283.795 85.906 289.03 90.2506C298.214 97.8648 297.02 110.585 296.79 112.69C295.596 125.545 286.136 132.89 284.3 134.234Z" stroke="#300F0F" stroke-width="6" stroke-miterlimit="10" stroke-linecap="round" stroke-linejoin="round"/>
<path opacity="0.08" d="M288.708 140.191C287.193 141.624 284.805 143.55 281.498 145.118C268.824 151.03 254.634 145.297 246.736 142.117C238.608 138.847 233.005 135.04 225.291 129.889C211.927 120.886 210.32 117.124 201.733 114.974C198.978 114.258 190.161 112.197 181.298 116.094C178.634 117.259 176.614 118.781 174.501 120.483C164.261 128.635 161.414 137.862 152.459 157.211C150.393 161.69 147.316 168.184 143.275 176.022" stroke="#300F0F" stroke-width="6" stroke-miterlimit="10" stroke-linecap="round" stroke-linejoin="round"/>
<path opacity="0.08" d="M163.48 200.208C170.736 202.493 185.477 170.244 195.396 173.693C200.952 175.619 200.401 187.264 204.81 187.667C209.677 188.07 214.453 174.231 214.912 172.887C216.06 169.438 223.821 146.506 210.779 131.681C208.988 129.665 204.947 125.186 198.289 123.753C198.289 123.753 191.171 122.23 182.767 126.306C160.587 136.921 154.066 197.208 163.48 200.208Z" stroke="#300F0F" stroke-width="6" stroke-miterlimit="10" stroke-linecap="round" stroke-linejoin="round"/>
<path opacity="0.08" d="M182.767 161.242C185.385 163.123 192.043 158.689 195.625 154.523C197.416 152.463 201.182 148.118 199.483 144.759C198.151 142.161 194.064 141.221 191.033 141.982C187.589 142.833 185.982 145.789 184.604 148.253C182.4 152.239 180.196 159.405 182.767 161.242Z" stroke="#300F0F" stroke-width="6" stroke-miterlimit="10" stroke-linecap="round" stroke-linejoin="round"/>
<path opacity="0.08" d="M200.677 72.2452C205.177 76.7689 210.182 83.2186 208.759 89.6235C207.703 94.3711 203.707 96.3866 204.488 97.6407C206.004 100.104 222.811 96.5658 233.878 85.0997C239.756 79.0084 242.465 72.2452 243.751 67.811" stroke="#300F0F" stroke-width="6" stroke-miterlimit="10" stroke-linecap="round" stroke-linejoin="round"/>
<path opacity="0.08" d="M156.133 98.5366C159.623 102.209 166.511 105.434 171.746 103.016C176.798 100.686 177.9 94.2368 178.175 92.5796C180.471 79.2324 168.348 63.1082 161.184 64.4071C153.378 65.7956 146.765 88.5933 156.133 98.5366Z" stroke="#300F0F" stroke-width="6" stroke-miterlimit="10" stroke-linecap="round" stroke-linejoin="round"/>
<path opacity="0.08" d="M163.113 71.0807C165.684 71.1255 167.889 78.8293 168.072 85.0998C168.164 88.235 167.843 95.7596 165.639 96.1627C162.883 96.6106 156.592 85.9508 159.21 76.8585C159.255 76.6346 160.909 71.0359 163.113 71.0807Z" stroke="#300F0F" stroke-width="6" stroke-miterlimit="10" stroke-linecap="round" stroke-linejoin="round"/>
<path opacity="0.08" d="M289.856 159.405C271.947 170.2 263.497 169.797 259.089 166.975C255.92 164.959 254.543 161.466 246.139 154.971C242.603 152.239 239.802 150.492 236.404 150.851C233.097 151.209 230.847 153.359 230.25 154.031C228.092 156.27 227.633 158.868 226.99 162.899C226.255 167.557 226.944 168.856 226.025 173.335C225.52 175.664 224.877 177.5 224.418 178.71" stroke="#300F0F" stroke-width="6" stroke-miterlimit="10" stroke-linecap="round" stroke-linejoin="round"/>
<path opacity="0.08" d="M235.944 170.379C232.592 165.631 232.179 161.018 234.108 159.316C236.404 157.345 241.501 159.943 242.052 160.212C247.746 163.168 249.353 169.349 249.721 170.961" stroke="#300F0F" stroke-width="6" stroke-miterlimit="10" stroke-linecap="round" stroke-linejoin="round"/>
<path opacity="0.08" d="M153.607 124.156C150.301 124.694 146.811 127.829 147.5 131.322C147.959 133.651 150.209 135.846 152.413 135.801C156.592 135.757 160.082 127.65 157.924 125.052C156.73 123.619 154.158 124.067 153.607 124.156Z" stroke="#300F0F" stroke-width="6" stroke-miterlimit="10" stroke-linecap="round" stroke-linejoin="round"/>
<path opacity="0.08" d="M174.961 150.492C176.752 144.804 179.415 136.384 187.359 133.024C188.462 132.576 194.11 130.158 200.126 132.756C206.371 135.443 208.3 141.534 208.713 142.923C211.33 152.015 204.213 159.226 203.799 159.629C202.376 161.063 201.136 161.69 194.936 164.422C182.859 169.662 176.797 172.26 174.961 171.14C169.542 167.781 174.364 152.463 174.961 150.492Z" stroke="#300F0F" stroke-width="6" stroke-miterlimit="10" stroke-linecap="round" stroke-linejoin="round"/>
<path opacity="0.08" d="M108.375 94.3712C108.604 96.2971 109.706 104.628 116.365 108.122C118.339 109.152 122.564 110.719 124.355 109.017C126.697 106.823 122.61 101.493 120.084 91.0568C117.054 78.7845 119.304 72.3796 117.329 71.9317C114.528 71.2599 106.859 82.7259 108.375 94.3712Z" stroke="#300F0F" stroke-width="7.8052" stroke-miterlimit="10" stroke-linecap="round" stroke-linejoin="round"/>
<path opacity="0.08" d="M272.773 172.439C263.313 167.467 258.859 160.301 260.374 157.211C261.89 154.165 270.339 153.135 280.121 157.211" stroke="#300F0F" stroke-width="6" stroke-miterlimit="10" stroke-linecap="round" stroke-linejoin="round"/>
<path opacity="0.08" d="M232.362 144.222C232.317 142.43 228.23 139.967 225.933 141.534C224.051 142.833 224.051 146.237 225.474 147.357C227.403 148.88 232.408 146.237 232.362 144.222Z" stroke="#300F0F" stroke-width="6" stroke-miterlimit="10" stroke-linecap="round" stroke-linejoin="round"/>
<path opacity="0.08" d="M211.698 103.463C209.402 104.628 208.3 105.21 208.024 106.151C207.06 109.42 213.902 114.437 219.964 116.676C223.637 118.065 227.954 119.588 231.123 117.393C235.026 114.706 234.888 107.763 232.362 103.911C231.949 103.284 230.893 101.717 228.872 100.821C227.908 100.373 226.668 99.8355 223.637 100.328C217.805 101.314 215.096 101.717 211.698 103.463Z" stroke="#300F0F" stroke-width="5.3519" stroke-miterlimit="10" stroke-linecap="round" stroke-linejoin="round"/>
<path opacity="0.08" d="M221.984 106.509C219.229 106.778 216.887 108.928 217.851 110.54C218.632 111.839 221.341 112.556 223.5 112.063C225.933 111.526 227.541 109.51 226.53 108.032C225.75 106.867 223.683 106.33 221.984 106.509Z" stroke="#300F0F" stroke-width="6" stroke-miterlimit="10" stroke-linecap="round" stroke-linejoin="round"/>
<path opacity="0.08" d="M148.189 74.6639C147.27 76.2315 140.244 88.9069 146.352 101.224C147.362 103.239 150.485 109.6 157.373 111.973C167.476 115.467 178.634 107.942 184.007 100.91C189.931 93.1619 189.977 84.5623 189.839 81.2031" stroke="#300F0F" stroke-width="6" stroke-miterlimit="10" stroke-linecap="round" stroke-linejoin="round"/>
</g>
<path d="M102.175 109.868C104.458 109.868 106.308 108.064 106.308 105.837C106.308 103.611 104.458 101.806 102.175 101.806C99.8926 101.806 98.0422 103.611 98.0422 105.837C98.0422 108.064 99.8926 109.868 102.175 109.868Z" fill="#783F21"/>
<path d="M89.2254 60.8687V37.6231C89.2254 28.71 81.832 21.4989 72.6937 21.4989C63.5553 21.4989 56.1619 28.71 56.1619 37.6231V60.8239C56.1619 75.6492 43.8091 87.6976 28.6091 87.6976V155.777C28.6091 161.734 33.5227 166.527 39.6302 166.527H105.757C111.865 166.527 116.778 161.734 116.778 155.777V87.6976C101.532 87.7423 89.2254 75.694 89.2254 60.8687Z" fill="#72361F"/>
<path d="M264.232 166.572H106.492L113.38 160.301H270.202L264.232 166.572Z" fill="#72361F"/>
<path d="M268.778 87.7424V148.387V155.777C268.778 158.241 266.712 160.256 264.186 160.256H256.609H243.797V166.527H264.232C270.34 166.527 275.253 161.734 275.253 155.777V87.6976H268.778V87.7424Z" fill="#72361F"/>
<path d="M82.7964 60.8687V37.6231C82.7964 28.71 75.403 21.4989 66.2646 21.4989C57.1263 21.4989 49.7329 28.71 49.7329 37.6231V60.8239C49.7329 75.6492 37.3801 87.6976 22.1801 87.6976V155.777C22.1801 161.734 27.0936 166.527 33.2012 166.527H99.3281C105.436 166.527 110.349 161.734 110.349 155.777V87.6976C95.1033 87.7423 82.7964 75.694 82.7964 60.8687Z" fill="#D98C40"/>
<path d="M23.1444 160.301C24.8894 164.019 28.7009 166.572 33.1553 166.572H99.2822C103.737 166.572 107.548 164.019 109.293 160.301H23.1444Z" fill="#C87634"/>
<path d="M50.7051 157.381C46.7542 151.47 49.345 140.296 55.7355 136.763C58.7148 135.124 61.6078 135.632 62.4498 135.77C70.4811 137.294 77.3897 148.492 74.6911 155.164C71.6253 162.76 55.8866 165.092 50.7051 157.381Z" stroke="#CF8139" stroke-width="6" stroke-miterlimit="10" stroke-linecap="round" stroke-linejoin="round"/>
<path d="M42.9329 150.916C41.2057 145.744 45.243 137.964 50.6403 134.293C60.7226 127.413 71.8412 137.34 79.5703 130.599C86.0255 124.942 83.5859 113.329 84.9676 113.283C87.0618 113.214 97.5111 139.857 84.9676 153.917C72.7264 167.632 46.2361 160.821 42.9329 150.916Z" stroke="#CF8139" stroke-width="6" stroke-miterlimit="10" stroke-linecap="round" stroke-linejoin="round"/>
<path d="M56.2536 152.301C54.2674 149.993 53.2311 145.975 55.023 143.066C56.3616 140.896 58.7364 140.434 59.4921 140.296C62.9248 139.603 68.4301 141.011 69.4232 145.537C70.2652 149.346 67.4802 153.548 63.81 154.61C61.1329 155.395 58.1319 154.495 56.2536 152.301Z" stroke="#CF8139" stroke-width="6" stroke-miterlimit="10" stroke-linecap="round" stroke-linejoin="round"/>
<path d="M78.2101 145.144C79.3543 144.59 79.4839 140.642 77.6704 139.187C77.0443 138.68 75.8784 138.241 75.1012 138.818C74.2592 139.418 74.3672 140.85 74.3888 141.081C74.5831 143.459 77.1306 145.675 78.2101 145.144Z" stroke="#CF8139" stroke-width="4.9126" stroke-miterlimit="10" stroke-linecap="round" stroke-linejoin="round"/>
<path d="M42.0693 122.449C43.6453 121.848 45.8691 122.957 46.6679 124.596C48.5893 128.544 42.3284 135.863 40.3422 135.055C38.3127 134.247 38.4639 123.834 42.0693 122.449Z" stroke="#CF8139" stroke-width="6" stroke-miterlimit="10" stroke-linecap="round" stroke-linejoin="round"/>
<path d="M41.1409 116.053C42.6522 117.462 45.027 119.332 48.2655 120.74C52.4107 122.541 56.1025 122.795 58.3478 122.749C61.7157 121.848 63.5724 120.278 64.6735 118.824C70.3084 111.459 65.8825 94.8818 53.0152 77.9584" stroke="#CF8139" stroke-width="6" stroke-miterlimit="10" stroke-linecap="round" stroke-linejoin="round"/>
<path d="M43.6454 109.196C45.3725 113.745 50.9426 117.485 54.9583 115.823C57.7649 114.668 58.8444 111.297 59.1898 110.235C61.5647 102.847 57.4411 92.4807 52.7993 92.042C47.9633 91.6034 40.8171 101.785 43.6454 109.196Z" stroke="#CF8139" stroke-width="6" stroke-miterlimit="10" stroke-linecap="round" stroke-linejoin="round"/>
<path d="M83.4564 87.8862C82.1826 83.2686 78.4692 76.9657 75.058 77.5198C71.1288 78.1662 69.9845 87.6323 69.6391 88.8097C67.1347 97.4215 71.2151 108.365 75.2524 108.896C78.2533 109.289 81.0815 103.678 81.9451 101.97C82.636 100.608 85.3778 94.7895 83.4564 87.8862Z" stroke="#CF8139" stroke-width="6" stroke-miterlimit="10" stroke-linecap="round" stroke-linejoin="round"/>
<path d="M72.4674 113.883C71.8197 114.253 70.9345 114.922 67.0484 123.211C65.1701 127.205 64.9758 127.897 65.3212 128.521C66.3575 130.414 71.7117 129.998 75.3819 127.39C79.7646 124.25 82.6792 117.439 80.5634 114.576C79.0306 112.475 75.0365 112.406 72.4674 113.883Z" stroke="#CF8139" stroke-width="6" stroke-miterlimit="10" stroke-linecap="round" stroke-linejoin="round"/>
<path d="M74.7342 117.346C72.3378 119.147 70.1357 122.61 70.9345 123.672C71.8413 124.873 76.9148 123.418 77.9511 120.163C78.3613 118.847 78.2102 116.908 77.3034 116.423C76.5262 116.03 75.4683 116.792 74.7342 117.346Z" stroke="#CF8139" stroke-width="6" stroke-miterlimit="10" stroke-linecap="round" stroke-linejoin="round"/>
<path d="M60.3556 145.837C58.0024 147.176 58.7364 154.287 60.6363 154.91C62.2987 155.464 66.4439 151.493 65.2349 148.284C64.5008 146.275 61.7805 145.029 60.3556 145.837Z" stroke="#CF8139" stroke-width="6" stroke-miterlimit="10" stroke-linecap="round" stroke-linejoin="round"/>
<path d="M49.1291 127.366C49.0211 128.128 51.0505 129.19 52.7345 129.375C53.3174 129.444 54.3321 129.537 54.7423 128.913C55.0878 128.405 54.9367 127.574 54.5912 127.066C53.4686 125.404 49.2802 126.327 49.1291 127.366Z" stroke="#CF8139" stroke-width="6" stroke-miterlimit="10" stroke-linecap="round" stroke-linejoin="round"/>
<path d="M46.3872 105.664C46.6031 109.358 50.4029 112.937 52.3675 112.128C54.1378 111.39 55.023 106.841 53.1663 104.117C51.871 102.224 49.0859 100.977 47.553 102.108C46.2361 103.078 46.3656 105.341 46.3872 105.664Z" stroke="#CF8139" stroke-width="6" stroke-miterlimit="10" stroke-linecap="round" stroke-linejoin="round"/>
<path d="M62.2987 81.4216C61.4999 81.9988 61.5862 84.6308 63.1623 86.0392C64.9326 87.6092 67.6097 86.8011 67.912 85.8083C68.3869 84.2614 63.594 80.475 62.2987 81.4216Z" stroke="#CF8139" stroke-width="6" stroke-miterlimit="10" stroke-linecap="round" stroke-linejoin="round"/>
<path d="M94.0352 132.446C90.9695 131.268 85.3347 130.576 82.5928 134.293C79.5055 138.472 82.5496 144.867 83.0246 145.837C83.37 146.529 86.2198 152.047 92.3081 152.994C95.9135 153.548 101.246 152.578 103.103 148.838C105.694 143.597 100.491 134.939 94.0352 132.446Z" stroke="#CF8139" stroke-width="4.9126" stroke-miterlimit="10" stroke-linecap="round" stroke-linejoin="round"/>
<path d="M102.175 131.188C104.458 131.188 106.308 129.383 106.308 127.157C106.308 124.931 104.458 123.126 102.175 123.126C99.8926 123.126 98.0422 124.931 98.0422 127.157C98.0422 129.383 99.8926 131.188 102.175 131.188Z" fill="#72361F"/>
<path d="M102.175 109.868C104.458 109.868 106.308 108.064 106.308 105.837C106.308 103.611 104.458 101.806 102.175 101.806C99.8926 101.806 98.0422 103.611 98.0422 105.837C98.0422 108.064 99.8926 109.868 102.175 109.868Z" fill="#72361F"/>
<path d="M102.175 152.463C104.458 152.463 106.308 150.658 106.308 148.432C106.308 146.206 104.458 144.401 102.175 144.401C99.8926 144.401 98.0422 146.206 98.0422 148.432C98.0422 150.658 99.8926 152.463 102.175 152.463Z" fill="#72361F"/>
<path d="M29.8949 109.868C32.1774 109.868 34.0278 108.064 34.0278 105.837C34.0278 103.611 32.1774 101.806 29.8949 101.806C27.6123 101.806 25.762 103.611 25.762 105.837C25.762 108.064 27.6123 109.868 29.8949 109.868Z" fill="#72361F"/>
<path d="M29.8949 131.188C32.1774 131.188 34.0278 129.383 34.0278 127.157C34.0278 124.931 32.1774 123.126 29.8949 123.126C27.6123 123.126 25.762 124.931 25.762 127.157C25.762 129.383 27.6123 131.188 29.8949 131.188Z" fill="#72361F"/>
<path d="M29.8949 152.463C32.1774 152.463 34.0278 150.658 34.0278 148.432C34.0278 146.206 32.1774 144.401 29.8949 144.401C27.6123 144.401 25.762 146.206 25.762 148.432C25.762 150.658 27.6123 152.463 29.8949 152.463Z" fill="#72361F"/>
<path d="M66.2647 43.3113C69.3081 43.3113 71.7752 40.905 71.7752 37.9366C71.7752 34.9682 69.3081 32.5619 66.2647 32.5619C63.2213 32.5619 60.7541 34.9682 60.7541 37.9366C60.7541 40.905 63.2213 43.3113 66.2647 43.3113Z" fill="#72361F"/>
</svg>
