<svg id="Layer_1" data-name="Layer 1" xmlns="http://www.w3.org/2000/svg" viewBox="0 0 200.6 187"><defs><style>.cls-1,.cls-14,.cls-15,.cls-19,.cls-23,.cls-26,.cls-9{fill:none;}.cls-2{fill:silver;stroke:silver;}.cls-15,.cls-18,.cls-19,.cls-2,.cls-23,.cls-26,.cls-27,.cls-9{stroke-linecap:round;stroke-linejoin:round;}.cls-15,.cls-2,.cls-23,.cls-27,.cls-9{stroke-width:4px;}.cls-3,.cls-4,.cls-5{fill:#f9b03a;}.cls-4{opacity:0.4;}.cls-11,.cls-12,.cls-13,.cls-21,.cls-22,.cls-25,.cls-30,.cls-4,.cls-5,.cls-7,.cls-8{isolation:isolate;}.cls-5{opacity:0.68;}.cls-6,.cls-7{fill:#ef3e1b;}.cls-7{opacity:0.69;}.cls-8{fill:#c6321a;opacity:0.48;}.cls-14,.cls-15,.cls-9{stroke:#030037;}.cls-10,.cls-11,.cls-12,.cls-13{fill:#ff524e;}.cls-11{opacity:0.8;}.cls-12,.cls-21,.cls-30{opacity:0.5;}.cls-13{opacity:0.43;}.cls-14{stroke-miterlimit:10;stroke-width:3px;}.cls-15{stroke-dasharray:3.84 9.59;}.cls-16{fill:#d9d9ff;}.cls-17{opacity:0.3;}.cls-18,.cls-27{fill:#2d2d2d;}.cls-18,.cls-19,.cls-27{stroke:#2d2d2d;}.cls-18,.cls-19{stroke-width:5px;}.cls-20,.cls-21,.cls-22{fill:#00b3c6;}.cls-22{opacity:0.35;}.cls-23,.cls-26{stroke:#330e00;}.cls-24,.cls-25{fill:#565656;}.cls-25{opacity:0.27;}.cls-26{stroke-width:6px;}.cls-28{fill:#ff1f1f;}.cls-29,.cls-30{fill:#fdd2a7;}.cls-31{fill:#3babff;}.cls-32{fill:#330e00;}</style></defs><rect class="cls-1" width="197.1" height="187"/><path class="cls-2" d="M140.23,62.93a13.18,13.18,0,0,0-3.37-7.53l-9.4-10.6A11.88,11.88,0,0,1,124.39,37V31H89.92v6a11.87,11.87,0,0,1-3.06,7.82l-9.4,10.6a13.18,13.18,0,0,0-3.37,7.53L64.16,168.58h86Z" transform="translate(0.1 -3)"/><polygon class="cls-2" points="152.84 184.04 61.59 184.04 59.84 160.92 154.59 160.92 152.84 184.04"/><path class="cls-2" d="M130.87,31H83.32l1.44-11.43c.66-5.37,5.12-9.44,10.11-9.44h24.45a10.52,10.52,0,0,1,10.11,9.44Z" transform="translate(0.1 -3)"/><path class="cls-3" d="M132.6,58.08a13.31,13.31,0,0,0-3.37-7.52L119.82,40a11.9,11.9,0,0,1-3.06-7.81v-6H82.29v6A11.84,11.84,0,0,1,79.23,40L69.82,50.56a13.23,13.23,0,0,0-3.36,7.52L56.53,163.74h86Z" transform="translate(0.1 -3)"/><path class="cls-4" d="M142.7,163.78,132.77,58.12a13.18,13.18,0,0,0-3.37-7.52L120,40a11.84,11.84,0,0,1-3.06-7.81v-6H102.15l0,6.36a13.86,13.86,0,0,0,3.54,9.31l11,12.52a15.21,15.21,0,0,1,3.85,8.77l5.91,64.58c1.22,13.43-5.73,23.74-19.38,27.27l-34.29,3.29,66.57,13.6-2.23-8.07Z" transform="translate(0.1 -3)"/><path class="cls-5" d="M78.66,63.11a15.16,15.16,0,0,1,3.85-8.77l11-12.52a13.85,13.85,0,0,0,3.55-9.31l0-6.36H82.25v6A11.9,11.9,0,0,1,79.19,40L69.78,50.56a13.25,13.25,0,0,0-3.37,7.52L56.48,163.74l7.88,2.58Z" transform="translate(0.1 -3)"/><polygon class="cls-6" points="139.25 125.02 59.95 125.02 64.72 74.33 134.53 74.33 139.25 125.02"/><polygon class="cls-7" points="77.36 74.33 64.72 74.33 63.75 84.64 59.95 125.02 69.79 125.02 77.36 74.33"/><polygon class="cls-8" points="122.02 74.33 134.71 74.33 135.67 84.64 139.47 125.02 126.92 125.02 122.02 74.33"/><path class="cls-9" d="M132.6,58.08a13.31,13.31,0,0,0-3.37-7.52L119.82,40a11.9,11.9,0,0,1-3.06-7.81v-6H82.29v6A11.84,11.84,0,0,1,79.23,40L69.82,50.56a13.23,13.23,0,0,0-3.36,7.52L56.53,163.74h86Z" transform="translate(0.1 -3)"/><polygon class="cls-10" points="145.25 179.24 53.95 179.24 52.25 156.12 147 156.12 145.25 179.24"/><polygon class="cls-11" points="52.25 156.12 53.95 179.24 62.27 179.24 60.56 156.12 52.25 156.12"/><path class="cls-12" d="M111.73,177.08H53.86l-1-18h-.66l1.75,23.12h91.3L147,159.12H131.77C131.11,169.18,122.36,177.08,111.73,177.08Z" transform="translate(0.1 -3)"/><polygon class="cls-9" points="145.25 179.24 53.95 179.24 52.25 156.12 147 156.12 145.25 179.24"/><path class="cls-10" d="M123.28,26.11H75.73l1.44-11.44c.66-5.36,5.12-9.44,10.11-9.44h24.45a10.53,10.53,0,0,1,10.11,9.44Z" transform="translate(0.1 -3)"/><path class="cls-10" d="M121.88,14.67c-.66-5.36-5.12-9.44-10.11-9.44H87.32a10.51,10.51,0,0,0-10.1,9.44L75.77,26.11h.35l1-8.53c.66-5.36,5.12-9.44,10.11-9.44h24.45a10.53,10.53,0,0,1,10.11,9.44l1,8.53h.35Z" transform="translate(0.1 -3)"/><path class="cls-13" d="M121.88,14.67c-.66-5.36-5.12-9.44-10.11-9.44H104.6a10.53,10.53,0,0,1,10.11,9.44l1.44,11.44h7.17Z" transform="translate(0.1 -3)"/><path class="cls-10" d="M94.23,5.23h-7a10.53,10.53,0,0,0-10.11,9.44L75.73,26.11h7l1.44-11.44A10.51,10.51,0,0,1,94.23,5.23Z" transform="translate(0.1 -3)"/><path class="cls-9" d="M123.28,26.11H75.73l1.44-11.44c.66-5.36,5.12-9.44,10.11-9.44h24.45a10.53,10.53,0,0,1,10.11,9.44Z" transform="translate(0.1 -3)"/><line class="cls-9" x1="86.11" y1="13.46" x2="86.11" y2="23.11"/><line class="cls-9" x1="95.12" y1="13.46" x2="95.12" y2="23.11"/><line class="cls-9" x1="104.13" y1="13.46" x2="104.13" y2="23.11"/><line class="cls-9" x1="113.14" y1="13.46" x2="113.14" y2="23.11"/><line class="cls-14" x1="64.5" y1="156.12" x2="65.63" y2="179.24"/><line class="cls-14" x1="76.22" y1="156.12" x2="76.96" y2="179.24"/><line class="cls-14" x1="87.9" y1="156.12" x2="88.29" y2="179.24"/><line class="cls-14" x1="99.62" y1="156.12" x2="99.62" y2="179.24"/><line class="cls-14" x1="111.3" y1="156.12" x2="110.95" y2="179.24"/><line class="cls-14" x1="123.03" y1="156.12" x2="122.28" y2="179.24"/><line class="cls-14" x1="134.71" y1="156.12" x2="133.61" y2="179.24"/><line class="cls-9" x1="67.25" y1="51.92" x2="68.13" y2="51.92"/><line class="cls-15" x1="72.33" y1="51.92" x2="128.97" y2="51.92"/><line class="cls-9" x1="131.07" y1="51.92" x2="131.95" y2="51.92"/><polygon class="cls-9" points="139.25 125.02 59.95 125.02 64.72 74.33 134.53 74.33 139.25 125.02"/><polygon class="cls-9" points="139.91 131.8 59.33 131.8 59.95 125.02 139.25 125.02 139.91 131.8"/><path class="cls-16" d="M92.88,99l6.65-11.52L106.18,99c2.75,4.78-.88,10.64-6.65,10.64h0C93.75,109.64,90.12,103.82,92.88,99Z" transform="translate(0.1 -3)"/><path class="cls-9" d="M92.88,99l6.65-11.52L106.18,99c2.75,4.78-.88,10.64-6.65,10.64h0C93.75,109.64,90.12,103.82,92.88,99Z" transform="translate(0.1 -3)"/><line class="cls-9" x1="87.11" y1="115.5" x2="113.14" y2="115.5"/><g class="cls-17"><rect class="cls-18" x="177.58" y="81.4" width="17.92" height="96.4"/><rect class="cls-18" x="175.04" y="16.37" width="23.06" height="65.02"/><path class="cls-18" d="M195.41,19.37H177.49V18.32a8.77,8.77,0,0,1,9-8.5h0a8.77,8.77,0,0,1,9,8.5v1.05Z" transform="translate(0.1 -3)"/><line class="cls-19" x1="168.36" y1="26.56" x2="168.36" y2="67.16"/><line class="cls-19" x1="175.04" y1="33.1" x2="168.36" y2="33.1"/><path class="cls-18" d="M193.29,180.8a6.88,6.88,0,0,1-13.74,0Z" transform="translate(0.1 -3)"/></g><rect class="cls-20" x="171.8" y="79.56" width="17.92" height="96.4"/><rect class="cls-21" x="183.23" y="79.56" width="6.53" height="96.4"/><rect class="cls-22" x="171.8" y="79.56" width="6.44" height="96.4"/><rect class="cls-23" x="171.8" y="79.56" width="17.92" height="96.4"/><rect class="cls-24" x="169.25" y="14.53" width="23.06" height="65.02"/><rect class="cls-25" x="169.25" y="14.53" width="6.87" height="65.02"/><rect class="cls-25" x="185.1" y="14.53" width="6.87" height="65.02"/><rect class="cls-23" x="169.25" y="14.53" width="23.06" height="65.02"/><path class="cls-20" d="M189.62,17.53H171.7v-1a8.77,8.77,0,0,1,9-8.51h0a8.78,8.78,0,0,1,9,8.51v1Z" transform="translate(0.1 -3)"/><path class="cls-23" d="M189.62,17.53H171.7v-1a8.77,8.77,0,0,1,9-8.51h0a8.78,8.78,0,0,1,9,8.51v1Z" transform="translate(0.1 -3)"/><line class="cls-23" x1="162.57" y1="24.72" x2="162.57" y2="65.33"/><line class="cls-23" x1="169.25" y1="31.27" x2="162.57" y2="31.27"/><path class="cls-24" d="M187.5,179a6.88,6.88,0,0,1-13.73,0Z" transform="translate(0.1 -3)"/><path class="cls-23" d="M187.5,179a6.88,6.88,0,0,1-13.73,0Z" transform="translate(0.1 -3)"/><line class="cls-26" x1="178.27" y1="133.97" x2="178.27" y2="170.71"/><rect class="cls-23" x="171.8" y="79.56" width="17.92" height="96.4"/><rect class="cls-23" x="169.25" y="14.53" width="23.06" height="65.02"/><path class="cls-23" d="M189.62,17.53H171.7v-1a8.77,8.77,0,0,1,9-8.51h0a8.78,8.78,0,0,1,9,8.51v1Z" transform="translate(0.1 -3)"/><line class="cls-23" x1="162.57" y1="24.72" x2="162.57" y2="65.33"/><line class="cls-23" x1="169.25" y1="31.27" x2="162.57" y2="31.27"/><path class="cls-23" d="M187.5,179a6.88,6.88,0,0,1-13.73,0Z" transform="translate(0.1 -3)"/><g class="cls-17"><polygon class="cls-27" points="39.01 152.71 15.16 152.87 14.04 36.3 37.88 36.14 39.01 152.71"/><polygon class="cls-27" points="41.06 36.17 10.8 36.37 10.66 22.18 40.93 21.98 41.06 36.17"/><path class="cls-27" d="M18.57,12.93l14-.09c2.72,0,4.95,1.81,5,4.08l.07,8.13-23.84.16-.08-8.14C13.71,14.8,15.85,12.94,18.57,12.93Z" transform="translate(0.1 -3)"/><polygon class="cls-27" points="15.16 152.87 39.01 152.71 27.38 184.23 15.16 152.87"/></g><polygon class="cls-28" points="33.72 151.72 9.87 151.88 8.75 35.31 32.6 35.16 33.72 151.72"/><polygon class="cls-23" points="33.72 151.72 9.87 151.88 8.75 35.31 32.6 35.16 33.72 151.72"/><polygon class="cls-23" points="25.94 151.77 17.65 151.83 16.53 35.26 24.82 35.21 25.94 151.77"/><polygon class="cls-29" points="35.78 35.18 5.52 35.38 5.38 21.19 35.65 21 35.78 35.18"/><polygon class="cls-30" points="14.43 35.32 5.52 35.38 5.38 21.19 14.3 21.14 14.43 35.32"/><polygon class="cls-29" points="35.78 35.18 27.66 35.24 27.53 21.05 35.65 21 35.78 35.18"/><polygon class="cls-23" points="35.78 35.18 5.52 35.38 5.38 21.19 35.65 21 35.78 35.18"/><path class="cls-31" d="M13.29,11.94l14-.09c2.73,0,5,1.81,5,4.08l.08,8.13-23.85.16-.08-8.13C8.42,13.82,10.56,12,13.29,11.94Z" transform="translate(0.1 -3)"/><path class="cls-23" d="M13.29,11.94l14-.09c2.73,0,5,1.81,5,4.08l.08,8.13-23.85.16-.08-8.13C8.42,13.82,10.56,12,13.29,11.94Z" transform="translate(0.1 -3)"/><polygon class="cls-29" points="9.87 151.88 33.72 151.72 22.1 183.25 9.87 151.88"/><polygon class="cls-23" points="9.87 151.88 33.72 151.72 22.1 183.25 9.87 151.88"/><polygon class="cls-32" points="22.1 183.25 27.02 169.88 16.92 169.94 22.1 183.25"/></svg>