<svg id="Layer_1" data-name="Layer 1" xmlns="http://www.w3.org/2000/svg" viewBox="0 0 174 303.5"><defs><style>.cls-1{fill:#1da7cc;}.cls-2{fill:#1ebfdc;}.cls-3{fill:#13aaba;}.cls-4{fill:#0e7277;}.cls-5{fill:#fff;opacity:0.25;isolation:isolate;}.cls-6{fill:#7f4d49;}.cls-7{fill:#8c604f;}.cls-8,.cls-9{fill:none;stroke:#ffb45a;stroke-miterlimit:10;stroke-width:3px;}.cls-9{stroke-linecap:round;}</style></defs><path class="cls-1" d="M231.73,10.1h-2.95l-2.47,0c-3.73,0-7.46,0-11.19,0s-7.45,0-11.18,0h-3.4c-3.73,0-7.46,0-11.18,0-1.1,0-2.19,0-3.28,0l-1,0L142.67,46.87,199.44,310h2l6.34,0c8.09-5.09,21.68-12.15,34.2-11.58Z" transform="translate(-68 -7.5)"/><polygon class="cls-2" points="4.17 26.64 6.78 303.5 52.21 303.5 97.65 22.27 4.17 26.64"/><path class="cls-2" d="M236.84,34.43c-12.2,31.28-59.76,50-106.24,41.77-30.37-5.37-54.09-21.33-62.06-41.77Z" transform="translate(-68 -7.5)"/><ellipse class="cls-1" cx="18.33" cy="62.29" rx="3.35" ry="2.25"/><ellipse class="cls-1" cx="42.6" cy="54.69" rx="3.35" ry="2.25"/><ellipse class="cls-1" cx="41.04" cy="233.53" rx="7.5" ry="5.05"/><ellipse class="cls-1" cx="23.19" cy="230.45" rx="3.35" ry="2.25"/><ellipse class="cls-1" cx="47.46" cy="222.83" rx="3.35" ry="2.25"/><path class="cls-3" d="M145.49,46h15.14V65.69c0,2.81-3.39,5.09-7.57,5.09h0c-4.19,0-7.57-2.28-7.57-5.09V46Z" transform="translate(-68 -7.5)"/><path class="cls-4" d="M154.66,52.67h12.68c1.27,0,2.31.69,2.31,1.55h0c0,.86-1,1.56-2.31,1.56H154.66c-1.28,0-2.32-.7-2.32-1.56h0C152.34,53.36,153.38,52.67,154.66,52.67Z" transform="translate(-68 -7.5)"/><path class="cls-5" d="M87.43,99.93h0c3.82,0,6.92,2.08,6.92,4.65v16.61c0,2.57-3.1,4.66-6.92,4.66h0c-3.82,0-6.92-2.09-6.92-4.66V104.58C80.51,102,83.61,99.93,87.43,99.93Z" transform="translate(-68 -7.5)"/><path class="cls-1" d="M199.82,296.87V310h1.64l9.32,0H242V296.87Z" transform="translate(-68 -7.5)"/><path class="cls-6" d="M225.58,10c-.79,0-3.46.06-6.83.08h-.26l-2.13,0c-3.22,0-6.44,0-9.66,0s-6.43,0-9.65,0h-2.93c-3.22,0-6.44,0-9.66,0l-2.82,0c-.3,0-.59,0-.89,0H68V34.16H236.73V10Z" transform="translate(-68 -7.5)"/><rect class="cls-7" x="30.3" y="2.5" width="11" height="24.59"/><path class="cls-7" d="M195.53,10.12h-6.19V34.59h11V10.14h-4.79Z" transform="translate(-68 -7.5)"/><path class="cls-8" d="M131.06,9h41.82A2.16,2.16,0,0,1,175,11.15V31.82A2.16,2.16,0,0,1,172.88,34H131.06a2.15,2.15,0,0,1-2.16-2.15V11.15A2.15,2.15,0,0,1,131.06,9Z" transform="translate(-68 -7.5)"/><line class="cls-9" x1="52.52" y1="13.74" x2="74.14" y2="13.74"/></svg>